<?xml version="1.0" encoding="UTF-8" standalone="no"?>
<svg
   xmlns:dc="http://purl.org/dc/elements/1.1/"
   xmlns:cc="http://creativecommons.org/ns#"
   xmlns:rdf="http://www.w3.org/1999/02/22-rdf-syntax-ns#"
   xmlns:svg="http://www.w3.org/2000/svg"
   xmlns="http://www.w3.org/2000/svg"
   id="svg11"
   version="1.1"
   height="2229.7505"
   width="2103.5337">
  <metadata
     id="metadata15">
    <rdf:RDF>
      <cc:Work
         rdf:about="">
        <dc:format>image/svg+xml</dc:format>
        <dc:type
           rdf:resource="http://purl.org/dc/dcmitype/StillImage" />
        <dc:title></dc:title>
      </cc:Work>
    </rdf:RDF>
  </metadata>
  <defs
     id="defs7">
    <linearGradient
       gradientUnits="userSpaceOnUse"
       gradientTransform="matrix(0.9242076,0.37340411,-0.37581294,0.93016966,373.55407,-346.70746)"
       y2="1975.2341"
       y1="264.74344"
       x2="1968.5752"
       x1="279.94457"
       id="a">
      <stop
         id="stop2"
         stop-color="#FF8F71"
         offset="0%" />
      <stop
         id="stop4"
         stop-color="#FF3E55"
         offset="100%" />
    </linearGradient>
  </defs>
  <path
     style="fill:url(#a);fill-rule:evenodd"
     id="path9"
     d="m 1756.0519,1498.7494 -295.3436,731.001 -729.47669,-294.7277 257.88292,-638.2826 c 20.68877,-51.2065 78.97257,-75.9465 130.17907,-55.2578 l 636.7593,257.2675 z M 541.46714,1006.7623 c 201.43997,81.3871 298.76116,310.6632 217.3745,512.1023 l -0.61622,1.5252 c -81.38703,201.44 -310.66227,298.7615 -512.10224,217.3745 C 44.683219,1656.3773 -52.637597,1427.1002 28.748683,1225.6621 l 0.616227,-1.5253 c 81.38703,-201.4399 310.6632,-298.76111 512.10223,-217.3745 z M 1252.1621,294.72773 994.27914,933.01037 c -20.68952,51.20836 -78.97161,75.94683 -130.17904,55.25772 L 227.34175,731.00102 522.68533,0 Z m 851.3717,343.97651 -295.3436,731.00106 -636.7593,-257.2675 c -51.2065,-20.6888 -75.9468,-78.9716 -55.2577,-130.17903 l 257.8829,-638.28263 z" />
</svg>
